<svg width="50" height="50" viewBox="0 0 50 50" fill="none" xmlns="http://www.w3.org/2000/svg">
<path d="M18.7487 8.33594H12.4987C10.1975 8.33594 8.33203 10.2014 8.33203 12.5026V29.1693C8.33203 31.4705 10.1975 33.3359 12.4987 33.3359H37.4987C39.7999 33.3359 41.6654 31.4705 41.6654 29.1693V25.0026" stroke="#0057FF" stroke-width="3" stroke-linecap="round" stroke-linejoin="round"/>
<path d="M29.2177 8.38569C27.8983 9.70521 27.082 11.5281 27.082 13.5417C27.082 17.5687 30.3466 20.8333 34.3737 20.8333C36.3872 20.8333 38.2102 20.0172 39.5297 18.6976M29.2177 8.38569C30.5372 7.06615 32.3602 6.25 34.3737 6.25C38.4008 6.25 41.6654 9.51458 41.6654 13.5417C41.6654 15.5552 40.8491 17.3781 39.5297 18.6976M29.2177 8.38569L34.3737 13.5417L39.5297 18.6976" stroke="#0057FF" stroke-width="3" stroke-linecap="round"/>
<path d="M25 33.3359V41.6693" stroke="#0057FF" stroke-width="3" stroke-linecap="round" stroke-linejoin="round"/>
<path d="M16.668 41.6641H33.3346" stroke="#0057FF" stroke-width="3" stroke-linecap="round" stroke-linejoin="round"/>
</svg>
