<?xml version="1.0" encoding="UTF-8"?>
<svg id="_레이어_1" data-name="레이어 1" xmlns="http://www.w3.org/2000/svg" xmlns:xlink="http://www.w3.org/1999/xlink" viewBox="0 0 48 48">
  <defs>
    <style>
      .cls-1 {
        fill: #fff;
      }

      .cls-2 {
        fill: url(#_무제_그라디언트_10);
      }
    </style>
    <linearGradient id="_무제_그라디언트_10" data-name="무제 그라디언트 10" x1="8.92" y1="36.73" x2="41.8" y2="8.98" gradientUnits="userSpaceOnUse">
      <stop offset="0" stop-color="#2a56e0"/>
      <stop offset="1" stop-color="#3388f9"/>
    </linearGradient>
  </defs>
  <rect class="cls-2" width="48" height="48" rx="8.55" ry="8.55"/>
  <g>
    <path class="cls-1" d="M36.83,23.51c.56-.09.93-.62.84-1.18l-.79-4.66c-.09-.56-.62-.93-1.18-.84l-24.52,4.16c-.56.09-.93.62-.84,1.18l.79,4.66c.09.56.62.93,1.18.84l.37-.06v7.23c0,.56.46,1.02,1.02,1.02h22.56c.56,0,1.02-.46,1.02-1.02v-3.86c0-.56-.46-1.02-1.02-1.02h-16.15c-.56,0-1.02-.46-1.02-1.02v-2.43l17.74-3.01Z"/>
    <path class="cls-1" d="M33.58,13.03c-.19-.6-.43-1.23-.93-1.6-.59-.44-1.44-.45-2.13-.33-.66.12-1.29.38-1.9.67-.9.42-1.78.91-2.58,1.49-.15.11-.31.22-.5.21-.15-.01-.29-.09-.44-.11-.24-.03-.47-.03-.71-.01-.29.02-.58.05-.86.11h0s0,0,0,0h0c-.29.04-.57.11-.84.2-.23.07-.45.15-.66.26-.14.07-.24.19-.38.25-.18.08-.37.03-.54-.02-.96-.28-1.94-.43-2.93-.51-.67-.06-1.35-.09-2.01.03-.7.12-1.49.43-1.89,1.04-.34.53-.35,1.2-.32,1.83.04.79.11,1.57.32,2.33.04.16.11.24.19.28.19.1.46-.03.73-.08.95-.17,1.9-.34,2.85-.5,1.15-.2,2.3-.41,3.46-.61l2.44-.43c.11-.02.22-.04.33-.06h0c.11-.02.22-.04.33-.06.81-.15,1.63-.29,2.44-.44l3.46-.62c.95-.17,1.9-.34,2.85-.51.27-.05.57-.02.71-.18.06-.07.09-.17.08-.33-.07-.78-.27-1.55-.51-2.3Z"/>
  </g>
</svg>