<svg width="30" height="30" viewBox="0 0 30 30" fill="none" xmlns="http://www.w3.org/2000/svg">
<path fill-rule="evenodd" clip-rule="evenodd" d="M10.3998 3.57923L13.0802 6.14715L13.1001 6.16677C13.8328 6.90089 14.1337 7.91869 14.1337 8.8358C14.1337 9.7529 13.8328 10.7707 13.1002 11.5048L11.7961 12.8118C12.1031 13.8874 12.8349 15.0739 13.8537 16.1016C14.875 17.1319 16.0611 17.8779 17.1559 18.1893L18.4592 16.8831C19.192 16.1486 20.209 15.8463 21.1262 15.8463C22.0433 15.8463 23.0603 16.1486 23.7931 16.8831L26.4666 19.5621C27.1991 20.2963 27.5 21.314 27.5 22.2311C27.4999 23.1483 27.1989 24.166 26.4664 24.9001C24.473 26.8979 21.8725 27.5 20.6804 27.5C18.8352 27.5 17.1687 27.3864 15.2501 26.4889C13.3796 25.6138 11.3625 24.0384 8.65765 21.3276C5.91614 18.5801 4.35781 16.3334 3.49577 14.3591C2.62188 12.3578 2.5 10.7175 2.5 9.28239C2.5 8.27845 2.62617 7.3175 3.04635 6.33502C3.46235 5.3624 4.13063 4.45231 5.09308 3.48775C5.84665 2.73255 6.8855 2.46773 7.80026 2.50308C8.71156 2.53828 9.69135 2.876 10.3998 3.57923ZM7.70376 5.00122C7.29004 4.98524 7.0004 5.11566 6.86277 5.2536C6.04307 6.07507 5.59738 6.72789 5.34495 7.31811C5.09671 7.89851 4.99999 8.50039 4.99999 9.28239C4.99999 10.5264 5.10112 11.7882 5.78687 13.3588C6.48446 14.9563 7.82237 16.9511 10.4273 19.5618C13.0689 22.2091 14.8388 23.5364 16.3094 24.2244C17.732 24.8899 18.9612 25 20.6804 25C21.314 25 23.242 24.5923 24.6967 23.1343C24.8553 22.9753 24.9999 22.6535 24.9999 22.2311C24.9999 21.8086 24.8554 21.4869 24.6968 21.328L22.0235 18.649C21.8653 18.4904 21.5456 18.3463 21.1262 18.3463C20.7067 18.3463 20.3871 18.4904 20.2288 18.649L18.4467 20.435C18.1687 20.7136 17.7756 20.845 17.3858 20.7896C15.4329 20.5119 13.5264 19.3225 12.0782 17.8616C10.6305 16.4013 9.46815 14.4954 9.19572 12.5843C9.14029 12.1954 9.2709 11.8031 9.54838 11.525L11.3305 9.73892C11.4891 9.58001 11.6337 9.25821 11.6337 8.83576C11.6337 8.41969 11.4934 8.10131 11.3378 7.94004L8.66136 5.37589L8.64132 5.35625C8.45941 5.17396 8.11619 5.01715 7.70376 5.00122Z" fill="white"/>
</svg>
