<svg width="25" height="25" viewBox="0 0 25 25" fill="none" xmlns="http://www.w3.org/2000/svg">
<path fill-rule="evenodd" clip-rule="evenodd" d="M7.89981 1.07923L10.5802 3.64715L10.6001 3.66677C11.3328 4.40089 11.6337 5.41869 11.6337 6.3358C11.6337 7.2529 11.3328 8.27066 10.6002 9.00478L9.29608 10.3118C9.6031 11.3874 10.3349 12.5739 11.3537 13.6016C12.375 14.6319 13.5611 15.3779 14.6559 15.6893L15.9592 14.3831C16.692 13.6486 17.709 13.3463 18.6262 13.3463C19.5433 13.3463 20.5603 13.6486 21.2931 14.3831L23.9666 17.0621C24.6991 17.7963 25 18.814 25 19.7311C24.9999 20.6483 24.6989 21.666 23.9664 22.4001C21.973 24.3979 19.3725 25 18.1804 25C16.3352 25 14.6687 24.8864 12.7501 23.9889C10.8796 23.1138 8.86249 21.5384 6.15765 18.8276C3.41614 16.0801 1.85781 13.8334 0.995766 11.8591C0.121885 9.8578 0 8.21752 0 6.78239C0 5.77845 0.126167 4.8175 0.546354 3.83502C0.962348 2.8624 1.63063 1.95231 2.59308 0.987747C3.34665 0.232547 4.3855 -0.0322654 5.30026 0.00308457C6.21156 0.0382846 7.19135 0.375997 7.89981 1.07923ZM5.20376 2.50122C4.79004 2.48524 4.5004 2.61566 4.36277 2.7536C3.54307 3.57507 3.09738 4.22789 2.84495 4.81811C2.59671 5.39851 2.49999 6.00039 2.49999 6.78239C2.49999 8.02644 2.60112 9.28823 3.28687 10.8588C3.98446 12.4563 5.32237 14.4511 7.92734 17.0618C10.5689 19.7091 12.3388 21.0364 13.8094 21.7244C15.232 22.3899 16.4612 22.5 18.1804 22.5C18.814 22.5 20.742 22.0923 22.1967 20.6343C22.3553 20.4753 22.4999 20.1535 22.4999 19.7311C22.4999 19.3086 22.3554 18.9869 22.1968 18.828L19.5235 16.149C19.3653 15.9904 19.0456 15.8463 18.6262 15.8463C18.2067 15.8463 17.8871 15.9904 17.7288 16.149L15.9467 17.935C15.6687 18.2136 15.2756 18.345 14.8858 18.2896C12.9329 18.0119 11.0264 16.8225 9.57821 15.3616C8.13049 13.9013 6.96815 11.9954 6.69572 10.0843C6.64029 9.6954 6.7709 9.30305 7.04838 9.02497L8.83053 7.23892C8.9891 7.08001 9.13371 6.75821 9.13371 6.33576C9.13372 5.91969 8.99345 5.60131 8.83776 5.44004L6.16136 2.87589L6.14132 2.85625C5.95941 2.67396 5.61619 2.51715 5.20376 2.50122Z" fill="white"/>
</svg>
