<svg width="60" height="60" viewBox="0 0 60 60" fill="none" xmlns="http://www.w3.org/2000/svg">
<path d="M15 15C15 13.6193 16.1193 12.5 17.5 12.5H42.5C43.8808 12.5 45 13.6193 45 15C45 16.3807 43.8808 17.5 42.5 17.5H17.5C16.1193 17.5 15 16.3807 15 15Z" fill="white"/>
<path d="M15 25C15 23.6193 16.1193 22.5 17.5 22.5H42.5C43.8808 22.5 45 23.6193 45 25C45 26.3807 43.8808 27.5 42.5 27.5H17.5C16.1193 27.5 15 26.3807 15 25Z" fill="white"/>
<path d="M17.5 32.5C16.1193 32.5 15 33.6193 15 35C15 36.3807 16.1193 37.5 17.5 37.5H42.5C43.8808 37.5 45 36.3807 45 35C45 33.6193 43.8808 32.5 42.5 32.5H17.5Z" fill="white"/>
<path d="M15 45C15 43.6193 16.1193 42.5 17.5 42.5H27.5C28.8807 42.5 30 43.6193 30 45C30 46.3807 28.8807 47.5 27.5 47.5H17.5C16.1193 47.5 15 46.3807 15 45Z" fill="white"/>
<path fill-rule="evenodd" clip-rule="evenodd" d="M5 10C5 5.85788 8.35788 2.5 12.5 2.5H47.5C51.6423 2.5 55 5.85788 55 10V50C55 54.1423 51.6423 57.5 47.5 57.5H12.5C8.35788 57.5 5 54.1423 5 50V10ZM12.5 7.5H47.5C48.8807 7.5 50 8.61928 50 10V50C50 51.3807 48.8807 52.5 47.5 52.5H12.5C11.1193 52.5 10 51.3807 10 50V10C10 8.6193 11.1193 7.5 12.5 7.5Z" fill="white"/>
</svg>
