<svg width="60" height="60" viewBox="0 0 60 60" fill="none" xmlns="http://www.w3.org/2000/svg">
<path fill-rule="evenodd" clip-rule="evenodd" d="M30 7.5C23.0965 7.5 17.5 13.0965 17.5 20V40C17.5 41.3808 16.3807 42.5 15 42.5C8.09645 42.5 2.5 36.9035 2.5 30C2.5 23.9008 6.86833 18.8218 12.647 17.7211C13.7639 9.13285 21.1074 2.5 30 2.5C38.8928 2.5 46.236 9.13285 47.353 17.7211C53.1318 18.8218 57.5 23.9008 57.5 30C57.5 36.0993 53.1318 41.1783 47.353 42.279C46.236 50.8673 38.8928 57.5 30 57.5C28.6193 57.5 27.5 56.3808 27.5 55C27.5 53.6193 28.6193 52.5 30 52.5C36.9035 52.5 42.5 46.9035 42.5 40V20C42.5 13.0965 36.9035 7.5 30 7.5ZM47.5 37.0733C50.413 36.0438 52.5 33.2655 52.5 30C52.5 26.7345 50.413 23.9564 47.5 22.9268V37.0733ZM12.5 22.9268C9.58703 23.9564 7.5 26.7345 7.5 30C7.5 33.2655 9.58703 36.0438 12.5 37.0733V22.9268Z" fill="white"/>
</svg>
