<svg width="60" height="60" viewBox="0 0 60 60" fill="none" xmlns="http://www.w3.org/2000/svg">
<path d="M55 5H5C4.33695 5 3.70107 5.2634 3.23222 5.73223C2.7634 6.20108 2.5 6.83695 2.5 7.5V27.5C2.5 28.163 2.7634 28.799 3.23222 29.2677C3.70107 29.7365 4.33695 30 5 30H12.5V52.5C12.5 53.163 12.7634 53.799 13.2322 54.2677C13.7011 54.7365 14.337 55 15 55H45C45.663 55 46.299 54.7365 46.7677 54.2677C47.2365 53.799 47.5 53.163 47.5 52.5V30H55C55.663 30 56.299 29.7365 56.7677 29.2677C57.2365 28.799 57.5 28.163 57.5 27.5V7.5C57.5 6.83695 57.2365 6.20108 56.7677 5.73223C56.299 5.2634 55.663 5 55 5ZM17.5 50V45C18.8261 45 20.0979 45.5267 21.0355 46.4645C21.9732 47.4023 22.5 48.674 22.5 50H17.5ZM42.5 50H37.5C37.5 48.674 38.0267 47.4023 38.9645 46.4645C39.9023 45.5267 41.174 45 42.5 45V50ZM42.5 40C39.8478 40 37.3043 41.0535 35.429 42.929C33.5535 44.8043 32.5 47.3478 32.5 50H27.5C27.5 47.3478 26.4465 44.8043 24.5711 42.929C22.6957 41.0535 20.1522 40 17.5 40V20H42.5V40ZM52.5 25H47.5V17.5C47.5 16.837 47.2365 16.2011 46.7677 15.7322C46.299 15.2634 45.663 15 45 15H15C14.337 15 13.7011 15.2634 13.2322 15.7322C12.7634 16.2011 12.5 16.837 12.5 17.5V25H7.5V10H52.5V25ZM30 37.5C31.4832 37.5 32.9335 37.0602 34.1668 36.236C35.4002 35.412 36.3615 34.2405 36.929 32.8703C37.4967 31.4998 37.6452 29.9917 37.356 28.5367C37.0665 27.082 36.3522 25.7455 35.3032 24.6967C34.2545 23.6478 32.918 22.9335 31.4633 22.6441C30.0083 22.3547 28.5002 22.5033 27.1297 23.0709C25.7595 23.6385 24.5881 24.5998 23.764 25.8332C22.9399 27.0665 22.5 28.5168 22.5 30C22.5 31.989 23.2902 33.8967 24.6967 35.3032C26.1033 36.7097 28.011 37.5 30 37.5ZM30 27.5C30.4945 27.5 30.9778 27.6465 31.389 27.9212C31.8 28.196 32.1205 28.5865 32.3097 29.0433C32.499 29.5 32.5485 30.0028 32.452 30.4877C32.3555 30.9727 32.1175 31.4182 31.7677 31.7677C31.4182 32.1175 30.9727 32.3555 30.4877 32.452C30.0028 32.5485 29.5 32.499 29.0433 32.3097C28.5865 32.1205 28.196 31.8 27.9212 31.389C27.6465 30.9778 27.5 30.4945 27.5 30C27.5 29.337 27.7635 28.701 28.2323 28.2323C28.701 27.7635 29.337 27.5 30 27.5Z" fill="white"/>
</svg>
