<svg width="60" height="60" viewBox="0 0 60 60" fill="none" xmlns="http://www.w3.org/2000/svg">
<path d="M30 35C30.4945 35 30.9778 34.8535 31.389 34.5788C31.8 34.304 32.1205 33.9135 32.3097 33.4567C32.499 33 32.5485 32.4972 32.452 32.0123C32.3555 31.5273 32.1175 31.0818 31.7677 30.7323C31.4182 30.3825 30.9727 30.1445 30.4877 30.048C30.0028 29.9515 29.5 30.001 29.0433 30.1903C28.5865 30.3795 28.196 30.7 27.9212 31.111C27.6465 31.5222 27.5 32.0055 27.5 32.5C27.5 33.163 27.7635 33.799 28.2323 34.2677C28.701 34.7365 29.337 35 30 35ZM42.5 35C42.9945 35 43.4777 34.8535 43.889 34.5788C44.3 34.304 44.6205 33.9135 44.8098 33.4567C44.999 33 45.0485 32.4972 44.952 32.0123C44.8555 31.5273 44.6175 31.0818 44.2677 30.7323C43.9183 30.3825 43.4728 30.1445 42.9878 30.048C42.5028 29.9515 42 30.001 41.5433 30.1903C41.0865 30.3795 40.696 30.7 40.4213 31.111C40.1465 31.5222 40 32.0055 40 32.5C40 33.163 40.2635 33.799 40.7323 34.2677C41.201 34.7365 41.837 35 42.5 35ZM30 45C30.4945 45 30.9778 44.8535 31.389 44.5787C31.8 44.304 32.1205 43.9135 32.3097 43.4567C32.499 43 32.5485 42.4972 32.452 42.0122C32.3555 41.5272 32.1175 41.0817 31.7677 40.7323C31.4182 40.3825 30.9727 40.1445 30.4877 40.048C30.0028 39.9515 29.5 40.001 29.0433 40.1902C28.5865 40.3795 28.196 40.7 27.9212 41.111C27.6465 41.5223 27.5 42.0055 27.5 42.5C27.5 43.163 27.7635 43.799 28.2323 44.2677C28.701 44.7365 29.337 45 30 45ZM42.5 45C42.9945 45 43.4777 44.8535 43.889 44.5787C44.3 44.304 44.6205 43.9135 44.8098 43.4567C44.999 43 45.0485 42.4972 44.952 42.0122C44.8555 41.5272 44.6175 41.0817 44.2677 40.7323C43.9183 40.3825 43.4728 40.1445 42.9878 40.048C42.5028 39.9515 42 40.001 41.5433 40.1902C41.0865 40.3795 40.696 40.7 40.4213 41.111C40.1465 41.5223 40 42.0055 40 42.5C40 43.163 40.2635 43.799 40.7323 44.2677C41.201 44.7365 41.837 45 42.5 45ZM17.5 35C17.9944 35 18.4778 34.8535 18.8889 34.5788C19.3001 34.304 19.6205 33.9135 19.8097 33.4567C19.9989 33 20.0484 32.4972 19.952 32.0123C19.8555 31.5273 19.6174 31.0818 19.2678 30.7323C18.9181 30.3825 18.4727 30.1445 17.9877 30.048C17.5028 29.9515 17.0001 30.001 16.5433 30.1903C16.0865 30.3795 15.696 30.7 15.4213 31.111C15.1466 31.5222 15 32.0055 15 32.5C15 33.163 15.2634 33.799 15.7322 34.2677C16.2011 34.7365 16.837 35 17.5 35ZM47.5 10H45V7.5C45 6.83695 44.7365 6.20108 44.2677 5.73223C43.799 5.2634 43.163 5 42.5 5C41.837 5 41.201 5.2634 40.7323 5.73223C40.2635 6.20108 40 6.83695 40 7.5V10H20V7.5C20 6.83695 19.7366 6.20108 19.2678 5.73223C18.7989 5.2634 18.163 5 17.5 5C16.837 5 16.2011 5.2634 15.7322 5.73223C15.2634 6.20108 15 6.83695 15 7.5V10H12.5C10.5109 10 8.60322 10.7902 7.1967 12.1967C5.79018 13.6032 5 15.5109 5 17.5V47.5C5 49.489 5.79018 51.3967 7.1967 52.8032C8.60322 54.2098 10.5109 55 12.5 55H47.5C49.489 55 51.3967 54.2098 52.8032 52.8032C54.2098 51.3967 55 49.489 55 47.5V17.5C55 15.5109 54.2098 13.6032 52.8032 12.1967C51.3967 10.7902 49.489 10 47.5 10ZM50 47.5C50 48.163 49.7365 48.799 49.2677 49.2677C48.799 49.7365 48.163 50 47.5 50H12.5C11.8369 50 11.2011 49.7365 10.7322 49.2677C10.2634 48.799 10 48.163 10 47.5V25H50V47.5ZM50 20H10V17.5C10 16.837 10.2634 16.2011 10.7322 15.7322C11.2011 15.2634 11.8369 15 12.5 15H47.5C48.163 15 48.799 15.2634 49.2677 15.7322C49.7365 16.2011 50 16.837 50 17.5V20ZM17.5 45C17.9944 45 18.4778 44.8535 18.8889 44.5787C19.3001 44.304 19.6205 43.9135 19.8097 43.4567C19.9989 43 20.0484 42.4972 19.952 42.0122C19.8555 41.5272 19.6174 41.0817 19.2678 40.7323C18.9181 40.3825 18.4727 40.1445 17.9877 40.048C17.5028 39.9515 17.0001 40.001 16.5433 40.1902C16.0865 40.3795 15.696 40.7 15.4213 41.111C15.1466 41.5223 15 42.0055 15 42.5C15 43.163 15.2634 43.799 15.7322 44.2677C16.2011 44.7365 16.837 45 17.5 45Z" fill="white"/>
</svg>
