<svg width="60" height="60" viewBox="0 0 60 60" fill="none" xmlns="http://www.w3.org/2000/svg">
<path d="M22.251 42.5002C21.7565 42.5002 21.2732 42.647 20.8621 42.9217C20.4509 43.1962 20.1305 43.5867 19.9413 44.0437C19.7521 44.5005 19.7026 45.003 19.799 45.488C19.8955 45.973 20.1336 46.4185 20.4832 46.768C20.8329 47.1177 21.2783 47.3557 21.7633 47.4522C22.2482 47.5487 22.7509 47.4992 23.2077 47.31C23.6645 47.1207 24.055 46.8005 24.3297 46.3892C24.6044 45.9782 24.751 45.4947 24.751 45.0002C24.751 44.3372 24.4876 43.7015 24.0188 43.2325C23.5499 42.7637 22.914 42.5002 22.251 42.5002ZM14.751 42.5002C14.2565 42.5002 13.7732 42.647 13.3621 42.9217C12.9509 43.1962 12.6305 43.5867 12.4413 44.0437C12.2521 44.5005 12.2026 45.003 12.299 45.488C12.3955 45.973 12.6336 46.4185 12.9832 46.768C13.3329 47.1177 13.7783 47.3557 14.2633 47.4522C14.7482 47.5487 15.2509 47.4992 15.7077 47.31C16.1645 47.1207 16.555 46.8005 16.8297 46.3892C17.1044 45.9782 17.251 45.4947 17.251 45.0002C17.251 44.3372 16.9876 43.7015 16.5188 43.2325C16.0499 42.7637 15.414 42.5002 14.751 42.5002ZM29.751 42.5002C29.2565 42.5002 28.7733 42.647 28.362 42.9217C27.951 43.1962 27.6305 43.5867 27.4413 44.0437C27.252 44.5005 27.2025 45.003 27.299 45.488C27.3955 45.973 27.6335 46.4185 27.9833 46.768C28.3328 47.1177 28.7783 47.3557 29.2633 47.4522C29.7483 47.5487 30.2508 47.4992 30.7078 47.31C31.1645 47.1207 31.555 46.8005 31.8298 46.3892C32.1043 45.9782 32.251 45.4947 32.251 45.0002C32.251 44.3372 31.9875 43.7015 31.5188 43.2325C31.05 42.7637 30.414 42.5002 29.751 42.5002ZM37.501 21.2503C37.7208 20.8715 38.0363 20.557 38.4158 20.3384C38.7952 20.1198 39.2255 20.0048 39.6635 20.0048C40.1015 20.0048 40.5318 20.1198 40.9113 20.3384C41.2908 20.557 41.6063 20.8715 41.826 21.2503C42.1558 21.8222 42.6983 22.2403 43.3353 22.4136C43.9723 22.5869 44.652 22.5013 45.226 22.1753C45.5208 22.0205 45.7817 21.8084 45.9935 21.5514C46.2055 21.2943 46.3638 20.9976 46.4593 20.6785C46.5545 20.3594 46.5855 20.0245 46.5498 19.6934C46.514 19.3623 46.4123 19.0417 46.251 18.7503C45.5933 17.6079 44.6463 16.659 43.5053 15.9992C42.364 15.3394 41.0693 14.992 39.751 14.992C38.4328 14.992 37.138 15.3394 35.9968 15.9992C34.8558 16.659 33.9085 17.6079 33.251 18.7503C33.04 19.3025 33.0313 19.9117 33.2268 20.4696C33.4223 21.0275 33.809 21.4981 34.3188 21.7978C34.8283 22.0976 35.4275 22.207 36.01 22.1068C36.5928 22.0066 37.121 21.7031 37.501 21.2503ZM55.001 13.7503C53.4643 11.0925 51.2555 8.88579 48.5962 7.35159C45.937 5.81739 42.921 5.00977 39.851 5.00977C36.781 5.00977 33.765 5.81739 31.1058 7.35159C28.4465 8.88579 26.2378 11.0925 24.701 13.7503C24.5357 14.0357 24.4285 14.3509 24.3855 14.6778C24.3426 15.0048 24.3647 15.337 24.4507 15.6553C24.5366 15.9737 24.6848 16.2719 24.8865 16.5328C25.0883 16.7936 25.3395 17.012 25.626 17.1753C25.97 17.3712 26.3555 17.4826 26.751 17.5003C27.1915 17.5021 27.6248 17.3874 28.0065 17.1679C28.3885 16.9484 28.7058 16.6318 28.926 16.2503C30.023 14.3502 31.601 12.7724 33.5013 11.6754C35.4015 10.5784 37.557 10.0009 39.751 10.0009C41.945 10.0009 44.1005 10.5784 46.0007 11.6754C47.901 12.7724 49.4788 14.3502 50.576 16.2503C50.7393 16.5368 50.9577 16.7881 51.2185 16.9898C51.4795 17.1915 51.7775 17.3397 52.096 17.4256C52.4142 17.5116 52.7465 17.5338 53.0735 17.4908C53.4005 17.4478 53.7158 17.3406 54.001 17.1753C54.2938 17.0184 54.5522 16.8047 54.7615 16.5466C54.9707 16.2886 55.1265 15.9915 55.2195 15.6726C55.3127 15.3538 55.3413 15.0195 55.3037 14.6895C55.2663 14.3594 55.1632 14.0402 55.001 13.7503ZM44.751 35.0002H42.251V27.5002C42.251 26.8372 41.9875 26.2015 41.5188 25.7325C41.05 25.2637 40.414 25.0002 39.751 25.0002C39.088 25.0002 38.452 25.2637 37.9833 25.7325C37.5143 26.2015 37.251 26.8372 37.251 27.5002V35.0002H12.251C10.2619 35.0002 8.3542 35.7905 6.94768 37.197C5.54115 38.6035 4.75098 40.5112 4.75098 42.5002V47.5002C4.75098 49.4895 5.54115 51.397 6.94768 52.8037C8.3542 54.2102 10.2619 55.0002 12.251 55.0002H44.751C46.74 55.0002 48.6478 54.2102 50.0542 52.8037C51.4608 51.397 52.251 49.4895 52.251 47.5002V42.5002C52.251 40.5112 51.4608 38.6035 50.0542 37.197C48.6478 35.7905 46.74 35.0002 44.751 35.0002ZM47.251 47.5002C47.251 48.1635 46.9875 48.7992 46.5187 49.268C46.05 49.737 45.414 50.0002 44.751 50.0002H12.251C11.5879 50.0002 10.9521 49.737 10.4832 49.268C10.0144 48.7992 9.75098 48.1635 9.75098 47.5002V42.5002C9.75098 41.8372 10.0144 41.2015 10.4832 40.7325C10.9521 40.2637 11.5879 40.0002 12.251 40.0002H44.751C45.414 40.0002 46.05 40.2637 46.5187 40.7325C46.9875 41.2015 47.251 41.8372 47.251 42.5002V47.5002Z" fill="white"/>
</svg>
