<svg width="64" height="64" viewBox="0 0 64 64" fill="none" xmlns="http://www.w3.org/2000/svg">
<path d="M5.33398 16.0026C5.33398 14.5299 6.5279 13.3359 8.00065 13.3359H56.0006C57.4734 13.3359 58.6673 14.5299 58.6673 16.0026C58.6673 17.4754 57.4734 18.6693 56.0006 18.6693H8.00065C6.5279 18.6693 5.33398 17.4754 5.33398 16.0026Z" fill="black"/>
<path d="M5.33398 32.0885C5.33398 30.6157 6.5279 29.4219 8.00065 29.4219H56.0006C57.4734 29.4219 58.6673 30.6157 58.6673 32.0885C58.6673 33.5613 57.4734 34.7552 56.0006 34.7552H8.00065C6.5279 34.7552 5.33398 33.5613 5.33398 32.0885Z" fill="black"/>
<path d="M8.00065 45.5078C6.5279 45.5078 5.33398 46.7017 5.33398 48.1745C5.33398 49.647 6.5279 50.8411 8.00065 50.8411H56.0006C57.4734 50.8411 58.6673 49.647 58.6673 48.1745C58.6673 46.7017 57.4734 45.5078 56.0006 45.5078H8.00065Z" fill="black"/>
</svg>
