<svg width="50" height="50" viewBox="0 0 50 50" fill="none" xmlns="http://www.w3.org/2000/svg">
<circle cx="25" cy="25" r="25" fill="white"/>
<g clip-path="url(#clip0_160_1804)">
<mask id="mask0_160_1804" style="mask-type:luminance" maskUnits="userSpaceOnUse" x="12" y="12" width="26" height="26">
<path d="M38 12H12V38H38V12Z" fill="white"/>
</mask>
<g mask="url(#mask0_160_1804)">
<path d="M33.6001 20.6681H34.7506C35.3252 20.6681 35.8763 20.8964 36.2827 21.3027C36.6891 21.709 36.9173 22.2601 36.9173 22.8348V27.1681C36.9173 27.7427 36.6891 28.2938 36.2827 28.7002C35.8763 29.1065 35.3252 29.3348 34.7506 29.3348H33.6001C33.336 31.4292 32.3167 33.3553 30.7333 34.7515C29.15 36.1477 27.1116 36.918 25.0007 36.9181V34.7515C26.7246 34.7515 28.3778 34.0666 29.5968 32.8476C30.8159 31.6286 31.5007 29.9754 31.5007 28.2515V21.7514C31.5007 20.0275 30.8159 18.3742 29.5968 17.1553C28.3778 15.9363 26.7246 15.2514 25.0007 15.2514C23.2767 15.2514 21.6234 15.9363 20.4045 17.1553C19.1855 18.3742 18.5007 20.0275 18.5007 21.7514V29.3348H15.2507C14.676 29.3348 14.1249 29.1065 13.7186 28.7002C13.3123 28.2938 13.084 27.7427 13.084 27.1681V22.8348C13.084 22.2601 13.3123 21.709 13.7186 21.3027C14.1249 20.8964 14.676 20.6681 15.2507 20.6681H16.4012C16.6655 18.5739 17.685 16.6482 19.2683 15.2522C20.8516 13.8562 22.8899 13.0859 25.0007 13.0859C27.1114 13.0859 29.1497 13.8562 30.733 15.2522C32.3163 16.6482 33.3358 18.5739 33.6001 20.6681ZM15.2507 22.8348V27.1681H16.334V22.8348H15.2507ZM33.6673 22.8348V27.1681H34.7506V22.8348H33.6673ZM20.4073 29.1019L21.5556 27.2645C22.5882 27.9113 23.7823 28.2534 25.0007 28.2515C26.219 28.2534 27.4131 27.9113 28.4457 27.2645L29.594 29.1019C28.2174 29.9643 26.6251 30.4206 25.0007 30.4181C23.3762 30.4206 21.784 29.9643 20.4073 29.1019Z" fill="#262626"/>
</g>
</g>
<defs>
<clipPath id="clip0_160_1804">
<rect width="26" height="26" fill="white" transform="translate(12 12)"/>
</clipPath>
</defs>
</svg>
