<svg width="26" height="25" viewBox="0 0 26 25" fill="none" xmlns="http://www.w3.org/2000/svg">
<path d="M10.8645 0.968535C11.6418 -0.323105 13.5144 -0.323104 14.2917 0.968536L17.0786 5.59937C17.3579 6.0634 17.8134 6.39433 18.341 6.51653L23.6064 7.736C25.075 8.07614 25.6536 9.85708 24.6654 10.9955L21.1224 15.077C20.7674 15.486 20.5934 16.0214 20.6403 16.561L21.1076 21.9455C21.2379 23.4473 19.7229 24.548 18.3349 23.96L13.3583 21.8516C12.8596 21.6404 12.2966 21.6404 11.7979 21.8516L6.82138 23.96C5.4333 24.548 3.91834 23.4473 4.04869 21.9455L4.51599 16.561C4.56282 16.0214 4.38883 15.486 4.03381 15.077L0.490818 10.9955C-0.4974 9.85708 0.0812645 8.07614 1.54989 7.736L6.81527 6.51653C7.34288 6.39433 7.79838 6.0634 8.07763 5.59937L10.8645 0.968535Z" fill="#0057FF"/>
</svg>
